<?xml version="1.0"?>
<svg xmlns="http://www.w3.org/2000/svg" xmlns:xlink="http://www.w3.org/1999/xlink" version="1.1" viewBox="0 0 192 192" width="100px" height="100px"><g fill="none" fill-rule="nonzero" stroke="none" stroke-width="1" stroke-linecap="butt" stroke-linejoin="miter" stroke-miterlimit="10" stroke-dasharray="" stroke-dashoffset="0" font-family="none" font-weight="none" font-size="none" text-anchor="none" style="mix-blend-mode: normal"><path d="M0,192v-192h192v192z" fill="none"/><g fill="#3a2313"><path d="M122.88,42.24h19.2c2.11968,0 3.84,-1.72032 3.84,-3.84v-25.87008c0,-2.01216 -1.54752,-3.6864 -3.552,-3.82848c-6.10944,-0.43392 -18.04416,-1.02144 -26.62656,-1.02144c-23.58144,0 -38.94144,14.1312 -38.94144,39.81312v25.46688h-26.88c-2.11968,0 -3.84,1.72032 -3.84,3.84v26.88c0,2.11968 1.72032,3.84 3.84,3.84h26.88v72.96c0,2.11968 1.72032,3.84 3.84,3.84h26.88c2.11968,0 3.84,-1.72032 3.84,-3.84v-72.96h27.73248c1.9584,0 3.60192,-1.47072 3.81696,-3.4176l2.98752,-26.88c0.25344,-2.27328 -1.52832,-4.2624 -3.81696,-4.2624h-30.72v-19.2c0,-6.36288 5.15712,-11.52 11.52,-11.52z"/></g></g></svg>
