<?xml version="1.0"?>
<svg xmlns="http://www.w3.org/2000/svg" xmlns:xlink="http://www.w3.org/1999/xlink" version="1.1" viewBox="0 0 172 172" width="50px" height="50px"><g fill="none" fill-rule="nonzero" stroke="none" stroke-width="1" stroke-linecap="butt" stroke-linejoin="miter" stroke-miterlimit="10" stroke-dasharray="" stroke-dashoffset="0" font-family="none" font-weight="none" font-size="none" text-anchor="none" style="mix-blend-mode: normal"><path d="M0,172v-172h172v172z" fill="none"/><g fill="#dac8ab"><path d="M41.28,10.32c-17.0624,0 -30.96,13.8976 -30.96,30.96v89.44c0,17.0624 13.8976,30.96 30.96,30.96h89.44c17.0624,0 30.96,-13.8976 30.96,-30.96v-89.44c0,-17.0624 -13.8976,-30.96 -30.96,-30.96zM130.72,27.52h10.32c1.892,0 3.44,1.548 3.44,3.44v10.32c0,1.892 -1.548,3.44 -3.44,3.44h-10.32c-1.892,0 -3.44,-1.548 -3.44,-3.44v-10.32c0,-1.892 1.548,-3.44 3.44,-3.44zM86,34.4c18.3352,0 34.46773,9.632 43.61813,24.08h14.86187v68.8c0,9.4944 -7.7056,17.2 -17.2,17.2h-82.56c-9.4944,0 -17.2,-7.7056 -17.2,-17.2v-68.8h14.86187c9.1504,-14.448 25.28293,-24.08 43.61813,-24.08zM86,41.28c-24.6648,0 -44.72,20.0552 -44.72,44.72c0,24.6648 20.0552,44.72 44.72,44.72c24.6648,0 44.72,-20.0552 44.72,-44.72c0,-24.6648 -20.0552,-44.72 -44.72,-44.72zM86,55.04c17.0624,0 30.96,13.8976 30.96,30.96c0,17.0624 -13.8976,30.96 -30.96,30.96c-17.0624,0 -30.96,-13.8976 -30.96,-30.96c0,-17.0624 13.8976,-30.96 30.96,-30.96z"/></g></g></svg>
