<?xml version="1.0"?>
<svg xmlns="http://www.w3.org/2000/svg" xmlns:xlink="http://www.w3.org/1999/xlink" version="1.1" viewBox="0 0 172 172" width="50px" height="50px"><g fill="none" fill-rule="nonzero" stroke="none" stroke-width="1" stroke-linecap="butt" stroke-linejoin="miter" stroke-miterlimit="10" stroke-dasharray="" stroke-dashoffset="0" font-family="none" font-weight="none" font-size="none" text-anchor="none" style="mix-blend-mode: normal"><path d="M0,172v-172h172v172z" fill="none"/><g fill="#dac8ab"><g id="surface1"><path d="M154.45063,49.88c-1.37063,-7.56531 -7.90125,-13.07469 -15.48,-14.79469c-11.34125,-2.40531 -32.33063,-4.12531 -55.04,-4.12531c-22.69594,0 -44.02125,1.72 -55.37594,4.12531c-7.56531,1.72 -14.10937,6.88 -15.48,14.79469c-1.38406,8.6 -2.75469,20.64 -2.75469,36.12c0,15.48 1.37063,27.52 3.09063,36.12c1.38406,7.56531 7.91469,13.07469 15.48,14.79469c12.04,2.40531 32.68,4.12531 55.38937,4.12531c22.70938,0 43.34938,-1.72 55.38938,-4.12531c7.56531,-1.72 14.09594,-6.88 15.48,-14.79469c1.37062,-8.6 3.09062,-20.98937 3.44,-36.12c-0.69875,-15.48 -2.41875,-27.52 -4.13875,-36.12zM65.36,110.08v-48.16l41.96531,24.08z"/></g></g></g></svg>
